<?xml version="1.0" encoding="utf-8"?><svg xmlns="http://www.w3.org/2000/svg" xmlns:xlink="http://www.w3.org/1999/xlink" style="display:none;" fill="none"><symbol fill="none" viewBox="0 0 14 14" id="stars" xmlns="http://www.w3.org/2000/svg"><path d="M7.253 11.295 7 11.146l-.253.149-3.394 1.987h-.001a.325.325 0 0 1-.362-.013.273.273 0 0 1-.118-.298l.9-3.751.072-.3-.236-.2L.606 6.194a.289.289 0 0 1 .183-.51H.79l3.951-.326.298-.024.12-.274 1.546-3.537V1.52A.305.305 0 0 1 7 1.34c.136 0 .245.068.294.181v.002L8.84 5.067l.12.274.298.024 3.95.326h.003a.289.289 0 0 1 .183.51L10.392 8.73l-.236.198.072.3.9 3.752a.273.273 0 0 1-.118.298.324.324 0 0 1-.362.013l-3.395-1.995Z" fill="#F8B656" stroke="#F8B656"/></symbol></svg>